<?xml version="1.0" standalone="no"?>
<!DOCTYPE svg PUBLIC "-//W3C//DTD SVG 20010904//EN"
 "http://www.w3.org/TR/2001/REC-SVG-20010904/DTD/svg10.dtd">
<svg version="1.0" xmlns="http://www.w3.org/2000/svg"
 width="50px" height="39px" viewBox="0 0 50 39"
 preserveAspectRatio="xMidYMid meet">

<g transform="translate(0.000000,512.000000) scale(0.100000,-0.100000)"
fill="#000000" stroke="none">
<path d="M1066 4784 c-128 -28 -218 -85 -276 -175 -103 -160 -90 -371 32 -505
53 -57 105 -89 198 -120 52 -18 116 -19 1028 -24 l973 -5 -1112 -1330 c-612
-731 -1161 -1388 -1221 -1460 -168 -202 -216 -312 -205 -475 13 -202 116 -363
286 -448 164 -82 35 -77 1831 -77 1521 0 1598 1 1655 18 211 66 313 211 303
431 -8 185 -98 298 -288 362 -52 18 -120 19 -1229 24 l-1173 5 1063 1265 c584
696 1103 1315 1152 1375 115 143 180 240 207 312 48 126 63 315 36 445 -39
182 -145 299 -331 365 l-80 28 -1390 2 c-1200 1 -1399 0 -1459 -13z m569 -269
c31 -30 33 -82 5 -113 -25 -27 -70 -35 -169 -31 -67 4 -83 8 -105 28 -35 33
-35 83 -1 116 23 24 31 25 135 25 104 0 112 -1 135 -25z m1128 5 c49 -39 43
-106 -13 -135 -26 -14 -84 -15 -454 -13 l-424 3 -26 24 c-35 33 -35 83 -1 116
l24 25 434 0 c418 0 435 -1 460 -20z"/>
</g>
</svg>
