<?xml version="1.0" standalone="no"?>
<!DOCTYPE svg PUBLIC "-//W3C//DTD SVG 20010904//EN"
 "http://www.w3.org/TR/2001/REC-SVG-20010904/DTD/svg10.dtd">
<svg version="1.0" xmlns="http://www.w3.org/2000/svg"
 width="48.000000pt" height="48.000000pt" viewBox="0 0 48.000000 48.000000"
 preserveAspectRatio="xMidYMid meet">

<g transform="translate(0.000000,48.000000) scale(0.100000,-0.100000)"
fill="#000000" stroke="none">
<path d="M82 438 c-16 -16 -15 -43 1 -56 7 -6 54 -13 105 -14 l92 -3 -115
-135 c-115 -135 -132 -169 -103 -198 8 -8 62 -12 179 -12 140 0 169 3 180 16
9 11 10 20 2 32 -8 14 -31 18 -127 20 -64 1 -116 5 -116 8 0 3 47 61 105 129
125 147 134 164 111 200 -16 25 -17 25 -159 25 -98 0 -147 -4 -155 -12z m73
-18 c3 -5 -3 -10 -15 -10 -12 0 -18 5 -15 10 3 6 10 10 15 10 5 0 12 -4 15
-10z m105 0 c0 -5 -20 -10 -45 -10 -25 0 -45 5 -45 10 0 6 20 10 45 10 25 0
45 -4 45 -10z"/>
</g>
</svg>
